<svg id="Layer_1" data-name="Layer 1" xmlns="http://www.w3.org/2000/svg" viewBox="0 0 1208.75 679.92"><defs><style>.cls-1{fill:#5a4ea6;}.cls-2{font-size:231.19px;font-family:Assistant-Bold, Assistant;}.cls-2,.cls-4,.cls-5{fill:#fff;}.cls-2,.cls-4{font-weight:700;}.cls-3{letter-spacing:-0.01em;}.cls-4{font-size:165.29px;font-family:Roboto-Bold, Roboto;}</style></defs><title>Warframe Drop Finder</title><rect class="cls-1" x="0.37" y="0.46" width="1208" height="679"/><text class="cls-2" transform="translate(29.65 353.75)">WARF<tspan class="cls-3" x="578.66" y="0">R</tspan><tspan x="717.14" y="0">AME</tspan></text><text class="cls-4" transform="translate(50.98 483.67)">DROP</text><text class="cls-4" transform="translate(605.82 483.67) scale(1.01 1)">FINDER</text><path class="cls-5" d="M529.34,459.52l-27.28,34L489.2,483.15l27.27-33.95c-8.14-10.1-11.61-21.49-9.91-34.29a42,42,0,0,1,14.29-26.72,43.67,43.67,0,1,1,8.49,71.33Zm17-69.8a31.36,31.36,0,1,0,34.55,27.66A31.37,31.37,0,0,0,546.36,389.72Z"/></svg>